<svg width="66" height="66" viewBox="0 0 66 66" fill="none" xmlns="http://www.w3.org/2000/svg">
<path fill-rule="evenodd" clip-rule="evenodd" d="M61.191 35.7748L66.0007 32.9995L61.1918 30.223L65.3663 26.562L60.1083 24.7759L63.4888 20.3707L57.983 19.6452L60.4395 14.666L54.8981 15.0284L56.3359 9.66544L50.9709 11.1004L51.3353 5.56123L46.3538 8.01616L45.63 2.50965L41.2236 5.89096L39.4395 0.632808L35.7771 4.80836L33.0003 -0.00132L30.2242 4.80836L26.5619 0.632808L24.777 5.89096L20.3716 2.50965L19.6468 8.01616L14.6662 5.55991L15.0297 11.1004L9.6655 9.66405L11.1024 15.0284L5.56116 14.6646L8.01755 19.6452L2.51183 20.3694L5.89228 24.7759L0.6336 26.56L4.80803 30.223L-0.00099 32.9976L4.80803 35.7748L0.632874 39.4372L5.89228 41.2219L2.51097 45.6265L8.01689 46.3519L5.56037 51.3331L11.1016 50.9694L9.66484 56.3337L15.0289 54.8967L14.6654 60.4379L19.6461 57.9817L20.3708 63.4868L24.777 60.1068L26.5612 65.3644L30.2234 61.1908L32.9989 65.9991L35.7764 61.1908L39.4372 65.3663L41.2236 60.1068L45.6283 63.4868L46.3538 57.9817L51.3337 60.4379L50.9709 54.8967L56.3344 56.335L54.8981 50.9694L60.4387 51.3345L57.983 46.3519L63.4881 45.6284L60.1083 41.2219L65.3663 39.4372L61.191 35.7748Z" fill="#00BCD4"/>
</svg>
